<svg xmlns="http://www.w3.org/2000/svg" display="block" viewBox="0 0 678 381"><path fill="#182b9a" d="M0 0h678v381H0z"/><path fill="#16195c" d="M654 134h2v2l16-2v7l-3 1-1 2h10v237H0V163l10 5 14 4 4 3 6 2 3 6 2 1 1 20 13 1 3 1v2l7 1 1-6 4-5 5-2h7l8 3 5 2 1 3 6 1 2 3 2 18 2 1v13l2 8h2v2h2v2l4 2 7 4 3 3 11 4v1l-9-1-10-5 2 3v3l-3 1-1 2h-4v3l-10 3-2 2-5 2h-5v-2h4v-3h2l-1-6h-4l1-8-6 1-1 4-5 3h-3v2h12v2H76l4 5-10 2v3l22 1v3H82v2l-7 1 1 5-9 2v3h13l2 1-1 4h-7v-2h-8l-1 5h16l-1 2-8 1-2 4h7l18 2v-2h9v2l5-1 21 1 6 1v2l-8 2-18 1v2l15-1 3-1 16-1 3-1 1-4h-3l-1-4 6-1 1 1 1-2 32-1 16 3h9l2-4h7l1 4 16-2 2-1h11v5l3-2 16-2-4-17-1-2v-7l-5-1-3-1v-4l-7 3-5 1-2-4v-3h2v-3h2v-2l3-1 1-7h-6v2l-7 1v-9l5-4 6-3 3-1-4-2v-2l8-1-1-3h-12l-8 1v2l-6 4-7 2h-84l-5 1 1 1h13l4 1-1 3-7-1v2l-3 3-6-1v-2h-2l-4-10-2-11v-11h4l1 4 10 1v-4l9-4h5l3-9h2v11h3l1-4h2l1 4 4 2 1-8 5-1 3 10 9 2 1-8 4 2 4 9 5 2 65 1v-4h3l1-4h2l2-7h4l1-4-11 2v-7h2l2-5 6-4 11-2h7l4 2 4 2 3 9v4h-2v2h-6v8h-2l-1 8 1 3 4-2 20-2h26v-3h3v-4h2l1-3h2l2-8 4 1v5l-3 2-2 6-1 14 2 7v2h6v3h-35v-2l15-1-7-12-10 1v-2l-3 1h-14l1 9h-3v-9h-9l1 5 1 19 5 3 1 3 3 1v-2l5-1 2 3 3 2-3 4h-15l-4-1-3-10h-5l-1 4v8l2 2 3 7 4 2v4h3v-2l11-1 2-2h4l2-4 6-1 2-5 5-6 2-1 4-10h5v10l5 2 6 7 5 4 6 2v2l7-1-1-7v-16l2-8-4-1v-2h6l4 2 1-5h4v-9h-13l-7-1v3h-3l-1 6h-2l-1-3v-12l1 3h3l1-10h3v-9h-2v-7l2-2 14-1 10-1 1 12 2 7v6h-11v2h4l4 14h9l2 1v3h11v3h-12l4 7 1 20 2 11 1 1 3 15 6 4 5 1h23l3-3 10-1 1-1 31 1h19v-3l-27-2v-2h3v-4h-18l-3-4v-2h-2v-2h-3l-1-4 3-1 1-3h12l4 4h2v-6l2-1 1 3 22 1 2-2 10-3 21 1 5-5 5-3 5 1h4l2-5 13-1 1-5-19-1-8-2-16-1-2-2-10-1 4-2 26-1v-2l-5-1-2-1 1-4 9-3 2-3-12-1h-31l-9 1-1 4-4 3-2 5h3v3h-12v-3h-2l-2-8-11-4-6-2-6-3 1 4-38 1-5-1v-5h9l1 3 2 1 1-4 12-1 70-1h45v-3l5-2 3-5 4-3 5-1 2-6 5-2v-12l2-6h2l2 4 2 1v17h2l1-4 17-5h3v-11l1-3h-2v-3h2v-6l8-3h6v3h8l4-6-3 2h-4v-8h-11v-3l6-5h2v-2h2l2-5 3-1 2-4h5v-3l10-2v-5l3 1zM480 279z"/><path fill="#3754c1" d="M453 64h5l3 3 11 1 5-1 3 8 3 8 1 5h4v3l-3 2-2 9h2v-3h3v6h2l1-5 4 2 2 7 5-5 2 1-5 6 7 1 1 6 15 1 5 1v-3l-12-1-2-5-2-2v-3h2v2l4-1 3 1 1 4h2v-5h9v2h-6v6h5l8 3 2 4 3 1-1-3h6l-1-6v-2l-1-5h15l6 2v3h7l1 4 10 1v-4h-6v-2h4l-1-4 7-1h10v-2l3-2 1-4h2l-2 7-1 2 9-3 1-2 6-1 3 1 12-3 6-1v2h-2v2h-2l-1 4-7 2-1 2h-5l-2 4-3 3v10l3-1v5l-4 1v-3l-5 2h-5v-3h-3l-1 4 4 1v3l16-1 4-3h3l1 6-4 1v6l-1 1h-5v-2h-3l-2 5-5 2v5h-3 4l5-2h3v-2h2v-2h6l-1 3-7 4h-5v2l5 2-1 7h11v8l7-2-2 5-2 2-8-1v-3l-13 3-1 6h-2v3h2l-1 14-20 6-1 3h-2l-1-4v-10l1-3-3-1-1-4h-2l-2 18-5 3-2 6-7 2-3 3-2 4-5 1v3l-45 1-70 1-12 1-1 3-3-1v-3l-8 1-1 4 42-1-1-4 7 3 6 2 11 4 2 3v6h2v3h12v-3h-3l2-6 4-2 1-4 9-2h31l13 1-4 6-8 2-1 3 7 2v2l-26 2 8 1v2l16 1 8 2 19 2v5l-1 1-13 1-2 5h-4l-6-1-5 4-4 4h-9l-12-1-10 3-2 2-22-1-2-3v7l-4-1-3-3h-12l-3 4 1 2 3 1-1 2 4 1 1 4 18 1v4h-3v2h16l11 1 1 2-1 2-3 1h-16l-31-1-1 1-10 1-3 3h-23l-9-3-3-3-3-15-2-6-1-6-1-20-3-4v-3h12v-3h-11v-3l-5-1-1 1h-5l-3-9-1-6h-4v-2h11l-3-13v-12l-6 2h-9l-9 1-1 1-1 7h2v9h-3v7l-1 3h-3v12h2l1-6h3v-3h17l3 1v9l-4 1-1 4-10-2v2l4 1v6l-1 2v23l-7 1v-2l-7-2-7-6-4-5-4-2v-10h-5l-3 10-5 5-5 7-7 3-1 2-5 2-1 1h-11v2h-3v-4l-5-2-4-8-1-1v-8l2-4h5l3 7v3h19l2-3-4-4h-5v2l-4-1-1-3-5-3-1-24h9v9h3l-1-9 17-1v2l10-2 7 11v2l-6 1h-9v2l19-1h11l5 1v-3h-6l-3-9 1-14 3-7 3-1-1-5-3-1v5l-5 6h-2v4h-3v3l-7 1h-19l-20 2-4 1-2-5 2-6h2v-8h6v-2h2l-4-13-8-2v-1l-12 1-9 3-4 6h-2v7l6-2h5l-1 4h-4l-2 7h-2l-1 4h-3v4h-65l-6-3-5-10-2-1-1 8-9-2-3-8v-2l-4 1-2 8-5-2v-4h-2l-1 4h-3v-11h-2l-3 9-10 3-4 1v4h-7l-3-1-1-4h-4l2 18 4 12v2h2v2l6 1 1-3h2v-2l4-1v2l3-1 1-2h-17l-2-1 1-2 5-1h84l9-3 4-2v-2l8-2h12l2 2-1 2-8 1v2l8 1-4 1-1 2-6 2-6 4-1 9 7-1v-2h6v7l-4 1v2h-2v3h-2l2 4v3l7-3 5-1v4l5 1 3 1 2 9 3 13v4l-7 2-9 1-3 1v-5l-11 1-9 2h-9l-1-4h-7v5h-11l-18-3h-30l-1 3-1-2-5 2v3h3l-1 5-3 1-16 1-3 1h-15v-2l2-1 16-1 8-1v-2l-32-1v-2h-9v2H82l-12-2 2-5 8-1-15-1 1-5h8v2h7l1-4-15-1v-3l8-3-1-4 1-1h7v-2h10v-3H72l-2-1v-3l8-3-2-4h13v-2H77v-2l5-3h3l1-5h6l-1 8h4l1 6h-2v3h-4v2l10-3 4-3 8-1v-3h4l1-3h3l-2-6 5 1 5 3h3l-8-4-3-3-8-5v-2h-2v-2h-2l-3-8v-10l1-3-3-1-2-18-3-3-4-1-2-3-10-3-2-1h-7l-5 1-2 4-3 7-7-1v-2l-16-1-1-1v-20l-3-1-2-3v-3l-8-2-2-2-16-5-7-4-1-4 14 3 2 4h8l1-5h3v-9l-4-2v-2l10 1 5 2 2-6 3-2 2-6 3-1 4 2-5 1-1 4h18l-1-4 2-2 4 2v2h2v2l2 1h3l3-1v-8l3-5 3-1 2-6 8-4h17l2 3 4 1v-4l5 1 3 1v7h3l1 10-1 4 1 1v6l6-3v15l5 5v1l-9 3-5 2h-3l-1 3h15l-3 2-3 1h-10v3h19l7-2 5-2h4v-2h2v-2h-4l2-4 1-1 19-2 1-4 3-3 3-5 1-5-6-2-2-1v3l-7 1 2-10h9v3l6-1 3-2 1-3h3v-3l2-1 15-2-3-2 5-2 1-6v-4h3v2l6 2 3 1 1-2 4 1-3 10-1 4h5l3-4h3l2-4h6l1 4 4 2v9l5 1 1 6 5 1 2 1v2h3v2l4 1v4h4v2l9 2h3v7h30l1 2 9 1h10l-2-4-3-3 1-3 10-3 11-1 1-1h7v7h-3l1 6 5-5 2-2 3-2-3-5h8v-2l13-1 3-6h11l5-5 4-1 1-7 10-5 2-4 4-1 19-1-4-2-1-2 2-1-5-1v-4l-4-1 12-1 2-4h3v-2l-4-1-2-16 1-11 4-2 1-3 3-1v-4l-5-1zm27 215z"/><path fill="#1a2b90" d="M654 134h2v2l16-2v7l-3 1-1 2h10v237H507l-3-5v-3l-5-1-3-2v-2l-5-1-1-3h-2v-2l-4-2v-2l-4-1-1-4-5-2v-2h-15l-9-2-2-1v-2l-4-2-4-4v-2l-5-2v-3l-6-1-3-2v-2l-4-2v-2l-9-3-5-3v-2h-4l1 5-4 3h-2v-2l-5 4h-3v2h-2v4h-2l-1 4-2 3h-12l-4-1-5-6v-2h-3v-7l-5-2-2-4-5-1-6-5-6 1v7l-4 1v3h5l-1 5 7 1 1 4-10 5 11 3 1 5-2 1h-6v3l6 2 1 3-1 2h-13l-1 13-4 5h-3v-2l-4-1v-2l-5-2-7-3v-14l5-13h2l2-6h2v-4h2l-1-9-2-3 1-5h5l-3-9-8-2v-2l-12-1-4-2h3v-2l11-1 2-2h4l2-4 6-1 2-5 5-6 2-1 4-10h5v10l5 2 6 7 5 4 6 2v2l7-1-1-7v-16l2-8-4-1v-2h6l4 2 1-5h4v-9h-13l-7-1v3h-3l-1 6h-2l-1-3v-12l1 3h3l1-10h3v-9h-2v-7l2-2 14-1 10-1 1 12 2 7v6h-11v2h4l4 14h9l2 1v3h11v3h-12l4 7 1 20 2 11 1 1 3 15 6 4 5 1h23l3-3 10-1 1-1 31 1h19v-3l-27-2v-2h3v-4h-18l-3-4v-2h-2v-2h-3l-1-4 3-1 1-3h12l4 4h2v-6l2-1 1 3 22 1 2-2 10-3 21 1 5-5 5-3 5 1h4l2-5 13-1 1-5-19-1-8-2-16-1-2-2-10-1 4-2 26-1v-2l-5-1-2-1 1-4 9-3 2-3-12-1h-31l-9 1-1 4-4 3-2 5h3v3h-12v-3h-2l-2-8-11-4-6-2-6-3 1 4-38 1-5-1v-5h9l1 3 2 1 1-4 12-1 70-1h45v-3l5-2 3-5 4-3 5-1 2-6 5-2v-12l2-6h2l2 4 2 1v17h2l1-4 17-5h3v-11l1-3h-2v-3h2v-6l8-3h6v3h8l4-6-3 2h-4v-8h-11v-3l6-5h2v-2h2l2-5 3-1 2-4h5v-3l10-2v-5l3 1zM480 279z"/><path fill="#2240bc" d="M302 10h2l-2 6 8-1-3 1v6l-6 2h-4l-2 5-4 3h-3v2l-7 2-1 4 9-3 4-1h5v-2h5l4-2 9 1v2l14 1v-2l10-1 3-1v-6l5-3 5-1 1-1h6v-2h-8v-2l8-1 1-4h15v3h6v3l-10 1v2l4-1 17 1 7-2 3-2 7 1 3 1v2h-5l1 7 3 1 5 15h2v8l-3 5h-6v10l7-3v4h-3l-1 3-4 2v6l7-1v4h2l1-4 4-4 2 2-1 4h2l-2 6-1 2 1 9v10h2v-3l6 1v2h15l1 3h2l-1 4-1 1-8 1v4h10v1l-6 2 5 2-1 2-19 1-4 1-2 4-5 3-4 1-2 7-6 3-4 4-10-1-2 6-1 1h-13v2l-7 1 3 5-5 3-5 5-2 1v-7h3v-7l-7 1-1 1-16 2-5 1v4l4 3v3l-12 1-7-1-3-2-28-1v-7l-6 1-7-2 1-3h-4v-4l-5-2h-6l1-3v2h3v-2l-7-2-1-6-5-1v-9l-5-2v-4l-7 2-1 2-3 1-3 4-5-1 1-6 2-6 1-2-4-1-1 3h-3l-1-2-6-1 1-3-3 1 1 6-5 5 3 3-19 2v3h-3l-1 4-5 3-4-1v-3h-9l-1 7-1 3 7-1v-3l6 2 2 1v5l-5 8h-2l-1 4-7 2-12 1-3 4h4v2h-2v2l-10 4-6 1h-17l-2-1v-3l13-2-12-1 1-4 7-1 5-3 4-1v-2l-4-2-1-1v-14l-2 2h-3l-2-9 1-2v-10h-3v-7l-4-1-4-1v4l-5-1-1-3-17 1-6 3h-2l-1 4-5 5-2 11h-1l-1-10-2-1 3-7 2-2h2v-4l4-3 1-4-4-1h10v-3h13l6 1-3-4 2-3 4-1 12 2-2 2h-5l-1 6h2v2h5l5 5 1 8 5 1 1-4h2l1-3-4-1-2-3-5-5v-1h5l2-9 5-3-1-3 6-2 3-3 2-5h7v-3l6-2 1-1 14-1 3 2v2l-4 1v2l-10 3-8 2-2 9 2-1 22-1 1-2-9 1h-9l-1-3 5-1 5-2v-4h11v-4h9l-1 2 9-2 5-2 4-1h3v-6l3-6-7-1v-3l4-1 1 2 3 1v-2h4v-4h2v2l4 1v-3l-3-1v-3h3v-2l4-2 7 1 4-1v-2h-5v-4l5-3 1-2h3l2-5 3-2h7l3-3h8v-4h10l1-3h5v-2h8v-6h3l1-5zm94 9zm-122 7zm4 0zm-12 4zm159 42zm-297 31z"/><path fill="#1b298e" d="M564 0h114v106l-5 3-3 3h-2l1 5-4 2v3l-2 1 1 4-4 1v2h-6l2-9-1-3 2-1 1-9-4 2h-5l-1 4-5-1-1-1v-5l6-3 2-3h-3v-4l-5 1v-2h3l1-10-1-4h-2l-2 10-2 4-5 1-2-1-8 1-3-1-1 3h-4v-3l5-2 2-5 2-2-1-3h-7l-1 4h2v3h-2v2h-8l-4-1-5 2v2h-3v2l-3 1h-10v2h3v3l-2 1h-12l-2-2 1-1 10-1-2-5 4-1 1-4-13 3-16 1-2-2-15-1v-4l-7-2-7-3v-4h-4v-2l-4-2-3-3-1-2V57h2l-1-12-1-1V34l2-6h3l1-7 2-1v2h5l1-7 5-5 5-3 5-2 4-1v4l2-1h10V5h2l1-3z"/><path fill="#181637" d="M280 276h4v4h2v2h2l2 5 6 2v5l16 2v2l8 1 3 8v2h-5v5l2 3v9h-2v4h-2l-1 4-1 2h-2l-1 5-3 8-1 14 5 1 7 4v2l4 1v2l5-3 2-8 1-7h13v-5l-6-2v-3l8-1-1-4-12-3 3-3 7-3v-4l-7-1v-4l-4-1v-3l4-1v-7l7-2 6 6 4 1 5 5 2 1v7h3l5 6v2h16l3-6h2v-4h2v-2l5-3 3-1v2l5-4v-4h4v2l5 2 9 4 5 6 8 3v3l5 2 6 7 2 1v2l12 2 14 1v2l5 2 1 4 4 1 4 4v2h2l2 3 4 1 3 3 5 2 3 5v3H193v-3h2l2-5 4-5h2v-4h5v-2h2v-2h2v-2h2v-2l4-2 3-6 8-4 1-2h2l2-4 3-2h3v-2h2v-2l6-2v-2h3v-2l4-2 1-2h2v-2l5-2 5-3v-8l7 1v-2l-6-1 2-1-1-2-2-2v-5l-2-1v-2h-2v-4h2v-4h3l1-4 2-3z"/><path fill="#131549" d="M654 134h2v2l16-2v7l-3 1-1 2h10v237h-97v-3l7-2 8-1 20-1 8-1-4-1 1-5-6-2-10-1v-3l6-2h5l1-1 18-1 9-2v-3l8-1v-3l-4-1-1-2-12-1-3-1h-16v-2l-33 1-1 2h-18v-3h4v-2l3-3 13-1v-2l-16-1-24-3v-6h31v-2l-8-1v-3l-7-2v-2l7-1 3-2h46l1-4 2 1v-2l-7-3h-9l-3-2v-3l8-4 8-1-1-3h2l2-6 3-1v-2h2v-2h15v-2l-5-1 1-7 1-2 4-1h9l1-3h3l1-8 3-11 2-19 1-20-3-3v-5l-11 1-6 2-10-1v-3l-6 2v-2h-2v8l-4 2h-5v-3l-2 1-1 7-21 3-2-1 2-4 17-5h3v-11l1-3h-2v-3h2v-6l8-3h6v3h8l4-6-3 2h-4v-8h-11v-3l6-5h2v-2h2l2-5 3-1 2-4h5v-3l10-2v-5l3 1z"/><path fill="#2747c1" d="M604 98h2l-2 7-1 2 9-3 1-2 6-1 3 1 12-3 6-1v2h-2v2h-2l-1 4-7 2-1 2h-5l-2 4-3 3v10l3-1v5l-4 1v-3l-5 2h-5v-3h-3l-1 4 4 1v3l16-1 4-3h3l1 6-4 1v6l-1 1h-5v-2h-3l-2 5-5 2-1 2-9 3-7 1-1 1h-8v2l-5 1-1 5h-2l-1 4h-5l-2 5-4 1-2 3h-2l-1 4-7 6-2 4-4-1 2-4 2-7-9 1-2 4-6 3-5 3-11 2h-10l-3-1h-28l-2-7-4-2-14 1-15-1h-6l2-4 5-2 1-2h2v-2h12l1 3 8-1h9v3h6l1-3h2v-8l4-1 1 4 10 2v2h-3v2h2v2h-2v3l20 2v-2l7-1 1-4 4-9v-8l-2-10-3-5-6-5-5-1h-8l-2 2v5l-6 2h-3l-2 4-4 2h-7v-2l-5 2h-4v-2l-9 2 2 16-8 1-2-1v-2h2v-12h-3l1-4 8-3h2v-4l-8 1-2-2h2v-3l7-2 1-3-9 1-7 2-1-6 4-4h4l1-1 9-1-1-4 4-7 9-1 5-3h2l-1-10h2v-3h3v6h2l1-5 4 2 2 7 5-5 2 1-5 6 7 1 1 6 15 1 5 1v-3l-12-1-2-5-2-2v-3h2v2l4-1 3 1 1 4h2v-5h9v2h-6v6h5l8 3 2 4 3 1-1-3h6l-1-6v-2l-1-5h15l6 2v3h7l1 4 10 1v-4h-6v-2h4l-1-4 7-1h10v-2l3-2z"/><path fill="#241855" d="M384 207h4l1 12 2 7v6h-11v2h4l4 14h9l2 1v3h11v3h-12l4 7 1 20 2 11 1 1 1 18 4 1 5 2 14 3 1 5 5 1 1 3 13 1 6-1 2 1h34v2l8 1v2l2-1 9-1 3-1h5v2l-16 2-1 6-11 1-6-1h-17l-5 1-1-3 2-1 24-1v-2h-14v-3h-24v4l8 5 5 2 1 3 8 3v1h-13l-9-2-2-1v-2l-4-2-4-4v-2l-5-2v-3l-6-1-3-2v-2l-4-2v-2l-9-3-5-3v-2h-4l1 5-4 3h-2v-2l-5 4h-3v2h-2v4h-2l-1 4-2 3h-12l-4-1-5-6v-2h-3v-7l-5-2-2-4-5-1-6-5-6 1v7l-4 1v3h5l-1 5 7 1 1 4-10 5 11 3 1 5-2 1h-6v3l6 2 1 3-1 2h-13l-1 13-4 5h-3v-2l-4-1v-2l-5-2-7-3v-14l5-13h2l2-6h2v-4h2l-1-9-2-3 1-5h5l-3-9-8-2v-2l-12-1-4-2h3v-2l11-1 2-2h4l2-4 6-1 2-5 5-6 2-1 4-10h5v10l5 2 6 7 5 4 6 2v2l7-1-1-7v-16l2-8-4-1v-2h6l4 2 1-5h4v-9h-13l-7-1v3h-3l-1 6h-2l-1-3v-12l1 3h3l1-10h3v-9h-2v-7l2-2 14-1z"/><path fill="#111b5d" d="M580 190h2l2 4 2 1v13l1 4 2 1 1-3 1 2 13-2h6v-7l3-1v3l9-2v-8l3 1 5-1v3h10l6-2h11l2 6 2 2-2 31-3 16-3 11-3 1-1 2-13 1-2 9 5 1v2h-15v2h-2v2l-3 2-3 6 1 3-9 1-6 3h-2v3l7 1 8 1 1 1 8 1v1h-5v2l-31-2-21-3 1-4h4l1-5 11-1-2-3 2-7 2-2h4v2h6v-2l6-3 1-10h-3v-2h-16v-2h-3v-2h-5v-2l2-1h22v4h7l4 1h13v-5l-10 1-3-1v-2h-3v2l-8-1-2-1v-2l-26 1-1 1h-7l-1-4h5v-2l26-1 1-4h2v-2l2-1 1-3h4v-3h-4v2l-10 1-6 2-10 1-6 2h-8v3l-17 2-4-1 1-4 9-3 2-3-12-1h-31l-9 1-1 4-4 3-2 5h3v3h-12v-3h-2l-2-8-11-4-6-2-6-3 1 4-38 1-5-1v-5h9l1 3 2 1 1-4 12-1 70-1h45v-3l5-2 3-5 4-3 5-1 2-6 5-2v-12z"/><path fill="#2943b3" d="M240 239h12l2 2-1 2-8 1v2l8 1-4 1-1 2-6 2-6 4-1 9 7-1v-2h6v7l-4 1v2h-2v3h-2l2 4v3l7-3 5-1v4l5 1 3 1 2 9 3 13v4l-7 2-9 1-3 1v-5l-11 1-9 2h-9l-1-4h-7v5h-11l-18-3h-30l-1 3-1-2-6 1 3-6v-6l-1-1-10-1v-2h2v-2h2v-7l-4-1 1-8 4-3 1-7h-8l4-2v-7l17-2 1-1h15l4 1 2-3h2v3l2-2h19v-2h17v-4l11-4 4-2v-2z"/><path fill="#c59c3c" d="M564 0h35v2l5 1 1 9h3v3l6 1v2h2l1 8-2 7h-2l1 5v14l-2 1-2 9h-2v3h-2l-1 5-8 4-2 7-5 2-2 6h-23v3h-7v-6h-4v2l-7-2v-5h-4l-1-4-2-1-2-13-7-2 4 6v3h-3v-4h-2l-6-10-2-8V30h2v-4h2l1 6 1-6 1-10 6-1v6h2l1-5 5-1 1 3 2 1v-7l4-5h7V5h2l1-3z"/><path fill="#3e54a2" d="M504 138h8l7 2 2 4 4 2 2 4 2 10v8l-4 8 2 1-3 1-1 3-7 1v2h-12l-8-2v-3h2v-2h-2v-2h3v-2l-8-1-2-1-1-3h-4v8h-2l-1 4-6-1v-3l-17 1-2-2-11-1v2h-2l-1 3-5 2-1 2h12l15 1 7-1 5 3 2 6h27l3 1h10l14-3 5-4h3l2-5 9-1 1 2-3 7-1 3h3l3-5 6-5 1-3 4-4h4l2-5h5l1-4 5-2h5v4l6-1 6 1-1 2h-2l-1 3h-2v3l-7 2-10 5-5-1v-3h-2v2l-3 3h-4l-1 3-3 1-3 5h-2v2l-3 1 17 2v3l-6 2v5h-3l-1 4-6 4-10 2h-15l-4 2h-25v-5l-26-1-3-2v-2l-10-2-2-5h-12v-3l-3 1 2-5h-10l-1-6-7 2-10 2-3 2v-4l-2-1-1-4-8 1-3-1-2 6-8 1-1-3 9-4 5-3h2v-4h-5l3-4h8v4h8v-4l5-3 15-2 6-3h9l5 2h8l-2-6v-10l4-2h5v2l5-2h4v2l8-1 5-5 8-2v-6z"/><path fill="#1b2d90" d="M267 307h1v5l-4 3-7 2-1 1-8 1-6 2-4 8-5 4-9 1-1 5-8 7-10 5-3 1-1 3-6 2-1 3h-2v2h-13l-10-3h-9l-8 2-24-1-3 1-11-1 1-5 1-1 22-1v-2h-2v-2h4v-2h9v-2l-20-1-10 1-2 2 5 3v2h-18l-14-4-7-1v-2l2-1h11v2l10 1 1-5h-3l1-5 7 1v-10l-5 1-3 1-1-2h-4l-5 3-4-3-2 1-2 3-6 2H54l-3-1-1-2-2 1v-10l5 2h3v-2l24-2 2-2 7-1v-1h6v-2h9v2l5-1 21 1 6 1v2l-8 2-18 1v2l15-1 3-1 16-1 3-1 1-4h-3l-1-4 6-1 1 1 1-2 32-1 16 3h9l2-4h7l1 4 16-2 2-1h11v5l3-2 16-2z"/><path fill="#1e42b7" d="M508 236h31l13 1-4 6-8 2-1 3 7 2v2l-26 2 8 1v2l16 1 8 2 19 2v5l-1 1-13 1-2 5h-4l-6-1-5 4-4 4h-9l-12-1-10 3-2 2-22-1-2-3v7l-4-1-3-3h-12l-3 4 1 2 3 1-1 2 4 1 1 4 18 1v4h-3v2h16l11 1 1 2-1 2-3 1h-16l-31-1-1 1-10 1-3 3h-23l-9-3-3-3-3-15-2-6-1-6v-20h1l1 20h28v-2h-16v-2h-2v-4h4v-2h25l1-3 13-2 1-3h22v-3h24v2l24 1v-2h8v-2l-27-1v-1h-41v-3l-54 1v-3l10-2 56-1-2-4v-4h-2l1-2 4 4v6h2v3h12v-3h-3l2-6 4-2 1-4zm-28 43z"/><path fill="#34448d" d="M654 134h2v2l16-2v7l-3 1-1 2h10v122h-2l-2 4-13 10-10 6-1 1-17 3v-2l7-6 3-6 5-2 3-12h2l1-8 3-11 2-19 1-20-3-3v-5l-11 1-6 2-10-1v-3l-6 2v-2h-2v8l-4 2h-5v-3l-2 1-1 7-21 3-2-1 2-4 17-5h3v-11l1-3h-2v-3h2v-6l8-3h6v3h8l4-6-3 2h-4v-8h-11v-3l6-5h2v-2h2l2-5 3-1 2-4h5v-3l10-2v-5l3 1z"/><path fill="#273388" d="M125 206h19v2l-14 3-5 6-1 4v14l2 11 3 10h2v2l6 1 1-3h2v-2l4-1v2l3-1 1-2h-17l-2-1 1-2 5-1h49l33 1v4h-17v2l-18 1-3 1v-3h-2l-2 4-4-1h-15l-1 1-16 2v6l-1 1 4 1v7l-4 3-1 8 3 1v7h-2v2h-2v2h10l2 2v6l-3 5v5h3l-1 5-3 1-16 1-3 1h-15v-2l2-1 16-1 8-1v-2l-32-1v-2h-9v2H82l-12-2 2-5 8-1-15-1 1-5h8v2h7l1-4-15-1v-3l8-3-1-4 1-1h7v-2h10v-3H72l-2-1v-3l8-3-2-4h13v-2H77v-2l5-3h3l1-5h6l-1 8h4l1 6h-2v3h-4v2l10-3 4-3 8-1v-3h4l1-3h3l-2-6 5 1 5 3h3l-8-4-3-3-8-5v-2h-2v-2h-2l-3-8v-10l8-16 6-4 5-2z"/><path fill="#45589e" d="M218 144h19l3 7 1 3 6 1v4h5v4l-5 3-1 2h2v2l5-2h6v2h5l4-2v7l-8 3-2 1h10l4-3 3 1 2 6-7 3-5 1h-9v2l5 1 15 3 4 3v3h8v1l-11 2-5 2-32-2v-3l-16-1-8-1-1-2-6-2-17-1v-4h8l2-4-1-6-1-4h-2l-1-4v-8h3l1-7 7-6 8-3z"/><path fill="#595e8b" d="M581 164h5v4l6-1 6 1-1 2h-2l-1 3h-2v3l-7 2-10 5-5-1v-3h-2v2l-3 3h-4l-1 3-3 1-3 5h-2v2l-3 1 17 2v3l-6 2v5h-3l-1 4-6 4-10 2h-15l-4 2h-25v-5l-26-1-3-2v-2l-10-2-2-5h-12l1-4 2-3 7-1v-1l-5-1v-2l6-3h12l1-2h5l2 2v4l-5 1v2h2v2h3l1-3 9-1h33l14-3 5-4h3l2-5 9-1 1 2-3 7-1 3h3l3-5 6-5 1-3 4-4h4l2-5h5l1-4z"/><path fill="#2c46c1" d="M48 137l5 1v1l-5 1-1 4h18l-1-4 2-2 4 2v2h2v2l2 1h3l2-1-1 5-4 3-1 4h4l3 7v9l1 6-1 6h2l1 6h5v2l3 1v7l-9-2-2-1h-7l-5 1-2 4-3 7-7-1v-2l-16-1-1-1v-20l-3-1-2-3v-3l-8-2-2-2-16-5-7-4-1-4 14 3 2 4h8l1-5h3v-9l-4-2v-2l10 1 5 2 2-6 3-2 2-6z"/><path fill="#64677d" d="M564 0h35v2l5 1 1 9h3v3l6 1v2h2l1 8-2 7h-2l1 5v14l-2 1-2 9h-2v3h-2l-1 5-8 4-2 7-5 2-2 6h-23v3h-7v-6h-4v2l-7-2v-5h-4l-1-4-2-1-2-13-7-2 4 6v3h-3v-4h-2l-6-10-2-8V30h2v-4h2l1 6 1-6 1-10 6-1v6h2l1-3v4l-4 1v8l-3 1v6l-3 8 1 6 5 1v2h5l2 6 3 3h10v-2h4v2h2v3h8v3h-6l-2 5 3-1h7l1 1h13l8-4 2-4h2v-2l2-1v-6h2l1-5h-2l1-4-7-1-1-4 2-5h-2l-1-13 1-4-4-1-2-2v-8l-13-3h-8l-8 1-3-2h3V5h2l1-3z"/><path fill="#336bde" d="M455 232l7 3 6 2 8 3v2h2l2 8-8 1-48 1-10 1v3l10-1h44v3l12-1h32v1l22 1 2 1v2h-8v2h-18l-6-1v-2h-24v3l4 1h-16l-10-1-1 4-13 2-1 2h-25v2h-4v4h2v2l8-1h16v1h-8v2l-5 2-1-1-22-1-1-2v-18h-2l-3-4v-3h12v-3h-11v-3l-3-1v-3h7v-2l2-1h7l-1-7 8 2 37-1z"/><path fill="#f1d814" d="M631 159l10 1 8 3 13 5 12 8 4 3v87h-2l-2 4-13 10-10 6-1 1-17 3v-2l7-6 3-6 5-2 3-12h2l1-8 3-11 2-19 1-20-1-1-2-16-9-15-3-2v-2l-3-1v-3l-7-1z"/><path fill="#11164e" d="M155 212h2v11h3l1-4h2l1 4 4 2 1-8 5-1 3 10 9 2 1-8 4 2 4 9 5 2 8 1 46 2v1l-6 2-16 2v2l-6 4-7 2h-84l-5 1 1 1h13l4 1-1 3-7-1v2l-3 3-6-1v-2h-2l-4-10-2-11v-11h4l1 4 10 1v-4l9-4h5z"/><path fill="#75528d" d="M337 261h5v7h-2v-3h-3l-1 9-9 11-6 4 1 3h3l1 4-1 9 2-1 13-1v-6l6 3v4h9l-1 3h-8l8 4 5 5 1 3h2l2-4 7-3h5v-3h3v-2h4v12l-4 2-5-1-5 6-1 3h3l-2 4h-3l-3-3v-2h-3v-7l-5-2-2-4-5-1-6-5-6 1v7l-4 1v3h5l-1 5 7 1 1 4-10 5 11 3 1 5-2 1h-6v3l6 2 1 3-1 2h-13l-1 13-4 5h-3v-2l-4-1v-2l-5-2-7-3v-14l5-13h2l2-6h2v-4h2l-1-9-2-3 1-5h5l-3-9-8-2v-2l-12-1-4-2h3v-2l11-1 2-2h4l2-4 6-1 2-5 5-6 2-1z"/><path fill="#312887" d="M384 207h4l1 12 2 7v6h-11v2h4l4 14h9l2 1v3h11v3h-12l4 7 1 20 2 11 1 1v7l-2-1-3-15-1-23-6-2-5-1-3 1v2h4l1 18 1 4h2v2h3l1 6-4 2v2h2l2 3-1 6-3 3-11-2v-5l-4 1-2-2-5-2v-6h-5l-1-4 5-1-1-7v-16l2-8-4-1v-2h6l4 2 1-5h4v-9h-13l-7-1v3h-3l-1 6h-2l-1-3v-12l1 3h3l1-10h3v-9h-2v-7l2-2 14-1z"/><path fill="#172788" d="M59 360h33l15 3 8 4 9 1v3h28v-2h2v-2l6-1h22l-2 5-3 2-1 3h-2l-1 5H44v-6l-7-1-2-4h13l4 1v2h12v3l2-4 14-1v-3H43v-5l5-2z"/><path fill="#425272" d="M131 0h23l-1 7 12 2 1 4-1 3h2l2 3 1-1h8v11l-2 5-5 1-2 4-1 3-6 3-10 2h-11l-10-7-8-2-3-4v-2h-2l-2-6v-9l3-5 13-2-1-3z"/><path fill="#0f1861" d="M569 310h47v2l3-1 2 9 3 1 1 4 2 1v7l-2 3 7-1 2 6h2v2h-20v-2l-33 1-1 2h-18v-3h4v-2l3-3 13-1v-2l-16-1-24-3v-6h31v-2l-8-1v-3l-7-2v-2l7-1z"/><path fill="#4a589b" d="M542 4h3v4l5-1-3 5-1 7-3-1v-3l-5 1-1 5h-2v-6l-6 1v13l-2 4-1-1v-6h-2v4h-2l1 18 3 10 4 6v2h2v4l3-2-4-5v-2l7 1 2 4v10l3 1v4h4v5l5 1 2 1v-2h4v6h7v-3h23l1-6 6-3 2-7 4-2 3 1-1 2 3-1 2-3 4 1-1 5h2l-1 6-1 3h-2l-1 4-7 5h-2v2h-3v2l-3 1h-10v2h3v3l-2 1h-12l-2-2 1-1 10-1-2-5 4-1 1-4-13 3-16 1-2-2-15-1v-4l-7-2-7-3v-4h-4v-2l-4-2-3-3-1-2V57h2l-1-12-1-1V34l2-6h3l1-7 2-1v2h5l1-7 5-5 5-3 5-2z"/><path fill="#4e77dc" d="M194 196h12l2 2v15l11-1 5 1 1 6h6v3h-6v7l9-3 3-2 11 1v2l8 1-1 4 2 1-1 1h-56l-6-3-5-10-2-1-1 8-9-2-3-8v-2l-4 1-2 8-5-2v-4h-2l-1 4h-3v-12l6-2 1-7h-4v-2h2v-2h12v2h4v2l10-1 6-2z"/><path fill="#515a82" d="M119 120l5 1 2 4 1 11-1 9 3-1-1 10-4 2-3-1-1 4-2 6h-11v-4l-19 1-7 1-1-1v-5l3-4 1-19 3-3h4v-5l6-4h17l5 2z"/><path fill="#515685" d="M86 260h6l-1 8h4l1 6h-2v3h-4l1 3h5l1 2h2v-2l9-1-2 4-3 1-4 8-17 2v1l9 2 9 1v4h-2v2l4-1v2h10v2h-3v5l19-1 16 1 1 4h3l-1 5-3 1-16 1-3 1h-15v-2l2-1 16-1 8-1v-2l-32-1v-2h-9v2H82l-12-2 2-5 8-1-15-1 1-5h8v2h7l1-4-15-1v-3l8-3-1-4 1-1h7v-2h10v-3H72l-2-1v-3l8-3-2-4h13v-2H77v-2l5-3h3z"/><path fill="#4b5680" d="M218 144h19l3 7 1 3 6 1v4h5v4l-5 3-1 2h2v2l4 1-5 5h-9l-4 4h-2v5h-7l-4-4v-2h-8l-7-1-1-14-1-1v-7l4-7 8-3z"/><path fill="#8e7e5e" d="M532 15h3v6h2l1-3v4l-4 1v8l-3 1v6l-3 8 1 6 5 1v2h5l2 6 3 3h10v-2h4v2h2v3h8v3h-6l-2 5 3-1h7l1 1h13l8-4 2-4h2v-2l2-1v-6h2l1-5h-2l1-4-7-1-1-4 2-5h-2l-1-13 3-5h2l1 5 2 1v3h4v9l3 3v7l-2 6h-2v11l-6 3-1 3h-2v6l-1 1-11 2-5 3h-14l1-6-7-1v2l4 1-4 1h-13l-1-4-2-1-2-13-7-2 4 6v3h-3v-4h-2l-6-10-2-8V30h2v-4h2l1 6 1-6 1-10z"/><path fill="#371261" d="M280 276h4v4h2v2h2l2 5 6 2v5l16 2v2l8 1 3 8v2h-5l-1 9-3 4h-5v-12l-4 1-1 3h-8l-6-1h-10l-8-2-4-4 7 1v-2l-6-1 2-1-1-2-2-2v-5l-2-1v-2h-2v-4h2v-4h3l1-4 2-3z"/><path fill="#152469" d="M356 215l4 1v5l-3 2-2 6-1 14 2 7v2h6v3h-35v-2l15-1-7-12-10 1v-2l-3 1h-14l1 9h-3v-9h-9l1 5v7l-1-2h-2v-2l-7-1 2 9-1 7-8 1v-8l-3-16-1-4 1-12 1-2h3l1-4h4l2 6 5 1 1 9 1 3 4-2 20-2h26v-3h3v-4h2l1-3h2z"/><path fill="#4e72d5" d="M0 160l14 3 2 4h8l1-5 3-1h12l5 5 1 5 5 2-1 6h-2l-1 5 4 2 7 9 4 1v-4h2v-2h2l1-3h2v-5l11 1 3 3v4h5v2l3 1v7l-9-2-2-1h-7l-5 1-2 4-3 7-7-1v-2l-16-1-1-1v-20l-3-1-2-3v-3l-8-2-2-2-16-5-7-4z"/><path fill="#32438d" d="M453 64h5l3 3 11 1 5-1 3 8 3 8 1 5h4v3l-3 2-1 3-3 1-1 3h-2v3l-7 4-5 1h-16l-2-5-1-12 1-11 4-2 1-3 3-1v-4l-5-1z"/><path fill="#2655c5" d="M177 254h2v3l2-2h19l3 2v5h2v-6l10 2 1 3 5 2 1 3-2 4h2v2h2v2h-2l-1 4-3 2-1-1-7-1-1-8-1 1-21-1v6l-7 2v2l10 4 1 4-3 2h-3l-1 6h5l-2 2h-11l-12-2v-3l4-2 6-1v-3h2v-2l-8-1-2-1v-6h11v-2h-6v-17h5z"/><path fill="#28245d" d="M337 261h5v7h-2v-3h-3l-1 9-9 11-6 4 1 3h3l1 4-1 9 2-1 13-1v-6l6 3v4h9l-1 3h-8l8 4 5 5 1 3h2l2-4 7-3h5v-3h3v-2h4v12l-4 2-5-1-5 6-1 3h3l-2 4h-3l-3-3v-2h-3v-7l-5-2-2-4-5-1-6-5-6 1v7l-4 1v3l-10 3-2 1-2-10-1-4 1-2h5l-3-9-8-2v-2l-12-1-4-2h3v-2l11-1 2-2h4l2-4 6-1 2-5 5-6 2-1z"/><path fill="#2e2f56" d="M268 311l1 4-7 5h-4v2h-2l-2 4h-3v2h-3v2l-6 2v2h-2v2l-6 3-2 3h-2l-2 4-7 3-3 6-4 1v2h-2v2h-2v2h-2v2h-5v4l-5 5-3 5h-2v3h-20l1-5h2l1-4 4-4h3l1-4 3-2h4v-2l6-5h3l1-4 11-5 6-4 4-4 1-4 11-3 5-7 2-4 6-2 8-1 2-2 7-2z"/><path fill="#1e3196" d="M208 234h54v5l-3 1v5l3 1 1 6 4 1 2 1-1 10h-2v2h2l1 4 3-3h3l-1 3-5 2-1 4h-2l-2-9h-3l1 7-2 1-1 3h4l-1 6-5-1-3-1v-4l-7 3-5 1-2-4v-3h2v-3h2v-2l3-1 1-7h-6v2l-7 1v-9l5-4 6-3 3-1-4-2v-2l8-1-1-3-4-2 1-1-41-2z"/><path fill="#20244e" d="M650 262l1 2-3 10-5 3-3 6-5 5h-2v2l10-3h5l1 3h4l1 3-6 1h-12l-12-1 1 3 9 1v2l-4 1 2 1 14 1 7 2v1l-5 1h-11l-1 4h-19v-3h2v-2l-7-3h-9l-3-2v-3l8-4 8-1-1-3h2l2-6 3-1v-2h2v-2h15v-2l-5-1 1-7 1-2 4-1h9z"/><path fill="#505fb5" d="M395 180h7v4l-6 3-4 3-5 1v3l7-1v3l-8 3-12 3h-4l-2 6h-7v1l-23 1-1 1-18 1-1 4h-12l-4-13-8-2v-1h12l14-1h11l-1 5 6 1v-3l28-2 2-3 5-1 1-3 11-2 3-5z"/><path fill="#e9d228" d="M125 206h19v2l-14 3-5 6-1 4v14l2 11 3 10h2v2l5 1 2 5-5 1-10-5-3-3-8-5v-2h-2v-2h-2l-3-8v-10l8-16 6-4 5-2z"/><path fill="#2236b3" d="M88 361h8l13 3 6 3 9 1v3h28v-2h2v-2l6-1h22l-2 5-3 2-1 3h-2l-1 5h-21l-7-1-1-3h-11l-1 1h-16l-1-2h5l2-5h-10v5l2 1h-10l-8-1v-4l5-1v-2h-7l-4-5-2-1z"/><path fill="#3850ab" d="M626 163h7l7 3v10h2v7l-8 1v9l-4 5v-3l-6 2v-2h-2v8l-4 2h-5v-3l-2 1-1 7-21 3-2-1 2-4 17-5h3v-11l1-3h-2v-3h2v-6l8-3h6v3h8l4-6-3 2h-4v-8h-11l3-2 5-1z"/><path fill="#78643b" d="M644 313l16 2 1 2-13 1h-11v2l-7 2v2l5-1h13l5 1v-2h11v4l-13 3 7 2v2l12 3 1 3-9 2h-4v3h-23l1-3h-2l-2-6-7 1 2-10-3-1v-10h20z"/><path fill="#3a53a7" d="M300 64h9l3 3v7l-4 4 1 4 7 3 1 2-1 9-4 1 5 5v10l3 1-11 6-8-1-5-2 1-16 1-2h10l-3-7-4-2-1-6 3-3v-2h-5l-3-4v-7z"/><path fill="#3047a4" d="M368 28h10l6 2 1 3-3 8v3l-7 1-3 3h-2v-4l-1 1v7l-1 4-10 2h-5l-3-5-5-5-1-1V36l1-1 15-1v-4h8z"/><path fill="#3f7cd7" d="M508 236h31l13 1-4 6-8 2-1 3 7 2v2l-10 1h-24l-2-1v-2h-10l-6-2 1-5 3-1 1-4z"/><path fill="#4d98f0" d="M455 232l7 3 6 2 8 3v2h2l2 8-8 1h-59l-1-8 2 1 1-6 13 1-2 1 1 4 10 1v-4l19 2-1-4-31-1v-1l32-1z"/><path fill="#1d43b6" d="M388 207l4 1v2h2l2 5 5 4 5 1 2 8 3 2h9v-5h2l2 6 3 1-1 4-3-1v-3l-8 1-2 3-2-1 1 7-9 1v2h-7v2l-3 2h-5l-3-9-1-6h-4v-2h11l-3-13z"/><path fill="#8a7647" d="M144 10h16l5 3 1 3v14l-1 3-7 2-2 6-9-1-5-1v-3h2v-4h-4v-2l-6-1v-7l4-2 1-4h2v-2h3z"/><path fill="#1b1e4d" d="M658 347h14l6 1v21l-14 1-4-2-1-1h-8l-1 1h-6v-3l-4-1-1-4-2-2 5-3h2v-3l13-3z"/><path fill="#243da3" d="M583 183l2 1-1 5-1-3-4 1v2l3 1h-2l-2 18-5 3-2 6-7 2-3 3-2 4-5 1v3h-32l3-1v-2l3-1h14v-2h2v-2h3v-2h3v-3l-2-1 8-5 1-3h3v-5l7-2 2-7 2-3 4-1 2-6z"/><path fill="#36334c" d="M458 348h9l7 1v2l5 2 1 4 4 1 4 4v2h2l2 3 4 1 3 3 5 2 3 5v3h-24l-1-3-5-5v-3h-3v-2h-2l-2-6-4-2-2-1v-2l-4-1-2-2z"/><path fill="#63588b" d="M283 218h4l2 6 5 1 1 9 1 5h22v1h-10l1 9h-3v-9h-9l1 5v7l-1-2h-2v-2l-7-1 2 9-1 7-8 1v-8l-3-16-1-4 1-12 1-2h3z"/><path fill="#5e5a6e" d="M542 4h3v4l5-1-3 5-1 7-3-1v-3l-5 1-1 5h-2v-6l-6 1v13l-2 4-1-1v-6h-2v4h-2l1 18 3 10 4 6v2h2l-1 4h-2l-7-1-4-7-2-18-4-1v-9l2-6h3l1-7 2-1v2h5l1-7 5-5 5-3 5-2zm-26 39z"/><path fill="#505e8f" d="M467 186h5l2 2v4l-5 1v2h2v2h3l1-3 9-1h36l-2 3 6 2-3 3-9 1-4-1-1 5h-6v2h-11v-2l2-1h11v-5l-9-2-7-2-2 4-18 2-1 1h-9l-1-2 2-1h6v-2h-11l-9 2 2-4 7-1v-1l-5-1v-2l6-3h12z"/><path fill="#5c6187" d="M133 270h7l-3 16 3 1v7h-2v2h-2v2h8v3h-6v3h-3v-2h-4l1 2 12 2v1l-16 1h-11v-2h7v-2l-12-1 1-4 3-3 8-2h6v-2l-15-1v-2h5v-2l2-1 2-7h5l1-6h2z"/><path fill="#5664a0" d="M177 254h2v4h3l1 10h2l2 4v4l-7 2v2l10 4 1 4-3 2h-3l-1 6h5l-2 2h-11l-12-2v-3l4-2 6-1v-3h2v-2l-8-1-2-1v-6h11v-2h-6v-17h5z"/><path fill="#100d61" d="M295 294l12 1 5 1v2l8 1 3 8v2h-5l-1 9-3 4h-5v-12l-4 1-1 3h-8l-7-2v-14z"/><path fill="#4b5278" d="M632 161l10 3 1 3 6 5 9 15 1 5v10l-2-1v-5l-11 1-6 2-9-1 2-5 1-9 8-1v-7h-2l-1-10-6-2z"/><path fill="#273c78" d="M131 0h14l-1 4-2 1-1 5h-5l-2 6h-2v2h-2v4h2l1 10 5 1-1 3-5 1-1 3-8-2-3-4v-2h-2l-2-6v-9l3-5 13-2-1-3z"/><path fill="#d0b551" d="M103 132h10l8 2 1 5-3 1v8l-2 1-1 3h2v4h-5v-2l-6 2-1 3-6-2-4-5-1-11 1-4h3l1-4z"/><path fill="#827d6d" d="M96 125h17l7 4v2h2l2 4-1 6-1 5h3l2 6h-2v2h-4l-4 6-3 3-6 1v-3l-17-2-3-2v-2h2l-1-5h2l1-6 1-2v-7l2-7zm7 7l-4 2v3h-3l-1 9 1 7 5 5 5 1 1-3 6-2v2h5v-4h-2l1-3 2-1v-8l3-1-1-5-10-2z"/><path fill="#401260" d="M306 360l1 3 5 1 7 4v2l4 1v2l2 1-1 7h-36v-5l8-8h2v-2l4-3h2v-2z"/><path fill="#3a3e6e" d="M24 272h8l3 1v2h-3v3l10 1 1 1v5l-5 1v4h-4l-1 3 9 3v1H16l-2-4 6-1v-2l-14-1v-3l5-2h9v-3l8-1v-2l-7-1 3-1v-2l-3-1z"/><path fill="#619fe2" d="M322 239h3v2l10-2 7 11v2h-11l-5-1-1-3-1 4h-14v3h-3v-3h-9l-1-12h9v9h3l-1-9z"/><path fill="#212e80" d="M80 320h13v2h8v2l-13 2H76l1 2 7 2v3l-4 1H54l-3-1-1-2-2 1v-10l5 2h3v-2z"/><path fill="#193ba4" d="M476 240l4 2 1 2v6h2v3h12v-3h-3l1-5 1 3 16 2v2l10 1v1l8 1-2 2-25-1-5-1-82 1v-3l10-2 56-1-2-4v-4h-2z"/><path fill="#3f4380" d="M512 43l4 1 3 18 3 5v2l7 1 1-2 5 1-4-6v-2l7 1 2 4v10l3 1v4h4v5l5 1 2 1v-2l4 1-1 3h-8l-3-2-9-2-1-4 3 1-1-5-6-1-12-2-6-1-2-4V57h2l-1-12zm4 0z"/><path fill="#422763" d="M340 297l6 3v4h9l-1 3h-8l8 4 5 5 1 3h2l2-4 7-3h5v-3h3v-2h4v12l-4 2-5-1-5 6-1 3h3l-2 4h-3l-3-3v-2h-3v-7l-5-2-2-4-5-1-6-5-4 1-2-4 2-3h2z"/><path fill="#614075" d="M332 336l13 3 1 5-2 1h-6v3l6 2 1 3-1 2h-13l-1 13-4 5h-3v-2l-4-1v-2h2l2-16 3-10 2-4h4z"/><path fill="#585869" d="M564 0h35v2l5 1 1 9h3v3l6 1v2h2l1 8-2-4h-7l-4-4v-2h-3l-1 3v-2l-3-1-2-4-2-1 1 5-1 1h-5l-1-6-3-3-1-3-7 1h-4V3l-8-2z"/><path fill="#161487" d="M242 251l10 1 3 9h3l2-9h2l-2 12-2 9-5 2-4 5-3 2h-4l-2-4v-3h2v-3h2v-2l3-1 1-7h-6v2l-7 1v-9l5-4z"/><path fill="#374281" d="M621 31l1 3h2v16l-3 16h-3v8h-4l-1 4v-2h-2v-5h-3l-2 3h-3l3-9h2v-3h2l1-9 3-1-1-19 3-1 2 10h2V32z"/><path fill="#1c35ba" d="M0 90h10l1 5h2l1 6 6 1v-3l10 2 2 4h-6l-2 3 2 1h-2l4 4v2h7l3 4 1 3-4 4-1 2h-6v-6l-4-2v-2l-4-2-4-2v-2h-2v-3h2v-4l-8-1v-2H6l-2-6H0z"/><path fill="#796c61" d="M562 1l8 1 2 1v3l7-1 4-1 2 6 3 1v6l5-1v-5l3 1 2 4h6l4 5 7 1 1 5-1 3-4-1-3-2h-3v9l3 2v7h-2l-1-5-3-1 1-9h-4v-3l-3-1v-5l-4 3v-2l-4-1-2-2v-8l-13-3h-8l-8 1-3-2h3V5h2l1-3z"/><path fill="#2e367d" d="M82 300h8l-2 5h10l5 2 1 5 5 1 1 1 12 1v1h-18v-2h-9v2H82l-12-2 2-5 8-1-15-1 1-5h8v2h7z"/><path fill="#1b1e60" d="M383 240l4 3 1 5h9l2 1v3h11v3h-12l2 5-4-2v-2l-12 2-1 7-1 1-1 21-1 3h-3l-5-5 1-9h3l2-17 2-6v-2h3z"/><path fill="#1d194a" d="M644 313l16 2 1 2-13 1h-11v2l-7 2v3h-2v4h19l3 3-2 2-8 2 12 1 2 4h-17v3l-2-1 1-2h-2l-2-6-7 1 2-10-3-1v-10h20z"/><path fill="#2c459f" d="M307 32l9 1v2l14 1-6 9h-6l2 3 3 1-1 3-10 1-6 5-2-1V41l2-3h-2v-5zm28 1l3 2-8 1v-2z"/><path fill="#5a6da3" d="M581 164h5v4l6-1 6 1-1 2h-2l-1 3h-2v3l-7 2-10 5-5-1v-3h-2v2l-3 3h-4l-1 3-3 1-1 2h-3l1-4 5-4 1-3 4-4h4l2-5h5l1-4z"/><path fill="#94895b" d="M457 79l8 1 1 2-5 1v3l13-1 2 2-1 10-3 6-5-1-2-1v-2l-10-1-2-2-2-12 4-4z"/><path fill="#9d9056" d="M215 149l9 1 8 1 2 3-1 12-5 2-1 2h-9l-4-2-2-8 1-9z"/><path fill="#69696c" d="M220 147h13l2 2v3h2v3h-2l1 8 3 1v6l-4 2-2 4-2 1h-17l-3-5-1-6v-10l2-6 2-2zm-5 2l-2 2-1 11 2 6 4 2h9l4-4h2l1-12-2-3-11-2z"/><path fill="#2f55d7" d="M562 124l5 1 17 1 1-2v3l10 1v-2l11-1 1 3h-4l-1 4 4 1v2l-2 2 1 3-2 1-11-1-1-3 1-2h3v-3l-30 1-5 1v-6z"/><path fill="#4a2c68" d="M383 312h5l2 8-1 10h-2l-1 4-2 3h-12l-4-1 1-4 2-3h-3l1-4 4-6 6 1 4-1z"/><path fill="#656659" d="M144 10h16l5 3 1 3v14l-1 3-7 2-2 6-9-1-5-1v-3h2v-4h-4v-2l-6-1v-7l4-2 1-4h2l-1 12 6-1 1 3h3v2h12v-2h2V15h-20z"/><path fill="#254ac1" d="M458 264h10l12 1v1l-7 1 3 2-6 1 1-3h-3v4l6 2-1 5-3 4h-6l-3-2v-2h-14l-7-2v-1l6-2 3-4 7-1z"/><path fill="#4b83de" d="M455 232l7 3 6 2 8 3v2h2l2 8-8 1h-16l-1-12-31-1v-1l32-1z"/><path fill="#2b2b54" d="M526 0h38l-5 5h-2v2l-12 1V4l-5 3-8 3-4 5h-2l-1 7h-5v-7h3v-5h-7V9l6-1 3-4z"/><path fill="#2b4ebf" d="M240 239h12l2 2-1 2-8 1v2l8 1-4 1-1 2-6 2-8 4-3-1 1-2-5 1v-2l-8 2-2 1v-6l11-4 4-2v-2z"/><path fill="#6573ae" d="M395 180h7v4l-6 3-4 3-5 1v3l7-1v3l-8 3-12 3h-4l-2 6h-4v-3h-7l-2-2 1-1h8l2-5 5-1 1-3 11-2 3-5z"/><path fill="#283fc5" d="M176 346l5 1 3 1v3h18l-1 4-6 2-1 3h-2v2h-13l-5-2-1-2v-6h-6l1-5z"/><path fill="#212c83" d="M640 367h3v2l8 1v2l4-2 12-1h11v8h-39l-3-1v-8z"/><path fill="#2228a7" d="M282 211l11 1v2h3v5l-3 5h-4l-2-3v-3h-4l-1 4h-3l-1 14-1-2-9 3h-4l1-7h3l1-4h2l2-7h4l1-6z"/><path fill="#3f4e9d" d="M228 274h3v3h3v2h-2v2l6 1v2h2v7h2l-2 4-6 2-9 1-1-3-3-1 3-1-2-7v-5h2v-4h3z"/><path fill="#191355" d="M262 234h2v3l9-3h4l2 6 3 16-1 8-6 1-1-1-1-10 1-1v-7l1-4-6 2-2 4h-3l-1 3-2-5-2-1-1-6h4z"/><path fill="#4e59b4" d="M369 267h1l1 20-7 1v-2l-7-2-7-6-3-5h2v-3h14v2h6z"/><path fill="#66666d" d="M464 77h6l2 1v3l4 2 2 2v9l-3 10-4 1h-13l-6-5-4-1v-6l1-2 1-9 5-2-1 2h-2l1 9 2 6 10 2v2l7 2 3-11v-5l-5-1h-9v-3l4-2-4-2z"/><path fill="#1c348d" d="M618 177h6v6l-8 2-1 4h-3v13l-1 1-1 7-21 3-2-1 2-4 17-5h3v-11l1-3h-2v-3h2v-6z"/><path fill="#2d2f64" d="M30 260h3v4h5v4h-3l1 8-4-1h3v-2H24v4l4 1v2l-8 1v3l-4-1H5v-4l3-2h11v-2H8v-2l6-1 4 1 3-2h3v-5h2l1-4z"/><path fill="#11277f" d="M356 215l4 1v5l-3 2-2 6-1 14 2 7v2h6v3h-35v-2l15-1-4-7v-2l5-1 3 3v7l6 1 1-4-1-1v-15h-6v-3h3v-4h2l1-3h2z"/><path fill="#26339e" d="M384 207h4v10l-4 4-3-1-1-2-12 1-4 1v-2h-2v-7l2-2 14-1z"/><path fill="#445fb1" d="M205 256l10 2 1 3 5 2 1 3-2 4h2v2h2v2h-2l-1 4-3 2-1-1-7-1-1-6v-6l-4-2z"/><path fill="#142d7e" d="M612 225l16 2 6 1v4l-5 2h-9l1 12-5 3-3-1v-2h-2l-1-4h2v-2h2l-1-8-1-1z"/><path fill="#4471d7" d="M603 191h5l1 2v10l-20 6-2 3v-12h4v-2l5-2v-4z"/><path fill="#645e83" d="M520 209l15 1v4l-7 1-4 4-3 1h-25v-5l15-1 1-3z"/><path fill="#4530a2" d="M262 252l5 1 2 1-1 10h-2v2h2l1 4 3-3h3l-1 3-5 2-1 4h-2l-2-9h-3l1 7-2 1-1 3h4l-1 6-5-1-3-1v-4l-3-1 2-3 5-1 2-13z"/><path fill="#aa9655" d="M103 132h10l8 2 1 5-3 1v8l-2 1-1 3h2v4h-5v-2l-6 2-1 3-6-2-4-5v-3h2v3h2v-4l5 1 5 1v3l3-1 4-7-3-1-2-8-10-2v2h-3l1-3z"/><path fill="#3c3b4b" d="M24 182l13 1 2 1v11h-1l-1-6-1 9-7-1-2-2-7-1-1-2v-6l5-1z"/><path fill="#333971" d="M585 265h15v2h3v10l-4 3h-3v2h-6v-2h2l-1-7-2 1v-2l-7-1 2-1z"/><path fill="#25254c" d="M672 336h6v12l-20-1-1 3h-5v-2l-4-1-1-3h11v-3l6-2h7z"/><path fill="#524f74" d="M668 146h10v4l-12 2v2l-3 1-1 2 2 1-8 5 2 3-6-1-10-3-1-2 9-3 6-4 8-5z"/><path fill="#615ca3" d="M363 240h17l3 1v9l-4 1-1 4-6-2-1-2-6-1v-2h-2v-4l-3-1h3z"/><path fill="#8c7545" d="M658 347h14l6 1v7h-34v-3l13-3z"/><path fill="#2d44cf" d="M304 216h11l1 5-1 1h-12l-1 4h-2l-1 6h17l4 2-20 2-4 1-2-5 2-6h2v-8h6z"/><path fill="#3b4a90" d="M366 73l7 1 4 4v9l-2 3h-10v-2h-2V76z"/><path fill="#3361ad" d="M508 236h31l13 1-4 6-7 1-1-4h-41v-2z"/><path fill="#2c46a8" d="M152 52h5l2 4-7 3-5 3h-3v2h-13v-5l-1-2h9l2-4z"/><path fill="#5b5162" d="M645 170l4 2 9 15 1 5v8h-1v-6l-13 2h-10v-9l2-2h4l4 6h8v-2h2l-1-5-4-4-3-6z"/><path fill="#59579d" d="M298 255l2 2v3h2v4l11-1 3 1 2-4 3-4h3v10l-4 5-2 2-4-2-1-2h-5v2l-4-1-1-3-5-3z"/><path fill="#4c4f8a" d="M66 302h8v2h9l3 3 2 1v2l-5 2 1 1 9 1v2H82l-12-2 2-5 8-1-15-1z"/><path fill="#594e49" d="M624 287h11l-2 1v2l10-3h5l1 3h4l1 3-6 1h-12l-18-3v-3z"/><path fill="#08054f" d="M296 294l16 2v2l8 1 3 8v2h-6v-4l-10-3-9-2v-2h-2z"/><path fill="#694aa2" d="M379 307h4v12l-4 2-9-1h-7l1-5 7-3h5v-3h3z"/><path fill="#2c2c63" d="M69 263h14l2 2-5 3h-3v2h12v2H76l4 5h-6l-2-2-4-2v-3h-2l1-5z"/><path fill="#7e7668" d="M301 100h10l3 6v6l-2 1h-11l-1-1v-11z"/><path fill="#8b815a" d="M300 64h6l3 2v9l-3 3h-8l-3-4v-7z"/><path fill="#6a6883" d="M80 320h13v2h8v2l-13 2H69l-7-2 1-2z"/><path fill="#928165" d="M487 196h6l3 2 7 2v5h-15l-13-2-1-3 11-1z"/><path fill="#676478" d="M16 288h13l4 2v3l9 3v1H16l-2-4 6-1v-2h-4z"/><path fill="#43538a" d="M478 88h5v8l-2 1-1 3h-2v3l-3 1zm-30 11l5 1 5 4h17l-1 2-8 2h-16l-2-5z"/><path fill="#606580" d="M348 38h8l2 1v4l4 1-1 4h-4l-1 4h-4v-2l-4-1-2-3v-7z"/><path fill="#5466a5" d="M460 267h7v3l7 3-1 5-3 4h-6l-4-4-1-10z"/><path fill="#4b5ea5" d="M228 274h3v3h3v2h-2v2l3 1-1 9 4 1v1l-11-1 1-3h4v-2h-9l-1-1v-5h2v-4h3z"/><path fill="#838178" d="M545 185h2l-1 4-3 3-5 1v7l-2 1h-8l-1-4-3-1v-3l7-1 4-2 3-3z"/><path fill="#2d2c94" d="M312 288l4 1 1 3 5 2 1 2v8h-2l-1-4-8-2v-2l-12-1-4-2h3v-2l11-1z"/><path fill="#545662" d="M651 358h13l14 2v8l-14-1-2-1v-2h6v-3h-18z"/><path fill="#5d5a5e" d="M632 302h14l7 2v1l-5 1h-11l-1 4h-15v-3l5-1v-2z"/><path fill="#585674" d="M24 272h8l3 1v2h-3v5h3v6H24l-3-2v-3l7-1v-2l-7-1 3-1v-2l-3-1z"/><path fill="#381154" d="M282 200h10l-1 8-19 1v-5l5-3z"/><path fill="#3a406b" d="M564 0h35v2l5 1 1 9h3v2l-4-1-1-3-3 1V9l-2-1 1-2-5-1-1-3h-13l-1 1h-9l-6-2z"/><path fill="#2942c6" d="M468 339h17l5 1v4l-2 1h-22l-2-1v-4z"/><path fill="#bca9ba" d="M340 297l6 3v4h9l-1 3h-8l8 4 3 5-8-1-7-6-4 1-2-4 2-3h2z"/><path fill="#423673" d="M278 224l3 1-2 4 1 4v2h2l1 2h6l5-1 2-2v9l-1-1-4-1-6 1-2 2v9l-2 3-3-16-1-4z"/><path fill="#7e7767" d="M644 313l16 2 1 2-13 1h-11v2l-11 1v-3h-2v-3h20z"/><path fill="#353281" d="M364 234h20l2 8-6-1h-10l-7-1v3l-3-1h2l1-7z"/><path fill="#636c87" d="M346 110l6 1 3 6-1 5-4 1-5-2-5-1v-8z"/><path fill="#3f4b7d" d="M307 16h3v4h12v7l-21 1 1-3 5-1z"/><path fill="#210442" d="M280 276h4l1 7-5 3h-9v2l-5-1v-3h3l1-4 2-3z"/><path fill="#264ac4" d="M349 270h14l1 3-3 8h-8l-6-8h2z"/><path fill="#3f4c8a" d="M330 60h8l2 1v11l-7-1-4-1v-2h-3l1-6z"/><path fill="#867a58" d="M233 160h1v7l-3 3h-2l1 6h-14l-1-1v-5h-3v-8l2 4v2l8 1 5 1 1-3 2-1 2-4z"/><path fill="#4b6fd0" d="M304 256h17l-3 5-2 3h-14v-4h-2v-3z"/><path fill="#3654a2" d="M596 184h6l-2 4h-3v2h-2l-1 7-3 1v2h-4v12l-2-4v-14h2v-2h4v-5z"/><path fill="#6a6da8" d="M266 194l9 1 3 2-1 5-5 2-1-1-10-1-2-1v-5h7z"/><path fill="#3f6ad5" d="M235 241h7v4l-5 2h-3v2l-15 5-2 1v-6l11-4 4-3z"/><path fill="#d6bb59" d="M565 9l2 4 1 13h-2v3l-6 1V16l2-5z"/><path fill="#6492f2" d="M28 161h12l1 5-1 2-8 1v2h-6l-1-9z"/><path fill="#222564" d="M342 271l5 2 6 7 5 4 6 2v2h2l1 4h-2v-2l-5 1v-3h-5l-4-3v-2h-4v-3h-2z"/><path fill="#1a1061" d="M373 208h5v2h3v2h-2v4l-16 1v-7l1-1z"/><path fill="#513773" d="M286 298h3l1 15h-10v-11h2v-2z"/><path fill="#7a7586" d="M66 329h14l4 1v3l-4 1H55l1-3z"/><path fill="#57648c" d="M313 36h3v2h8v5h-8l-2 5-6-1-1-5 2-4h4z"/><path fill="#b7a05b" d="M600 48v3l-1 2h2l-1 5h-2l1 7h-3v2l-2 1-2 4-2-1 2-13 2-2v-5l2-2z"/><path fill="#6d6679" d="M76 272h9l3 3 1 5h-9v2H70v-3l8-3z"/><path fill="#5786e8" d="M360 244h3v4h2v2h6l1 3h-4l1 6-1 1-11 1v-3h7v-5l-7-1v-2h2z"/><path fill="#385ad2" d="M410 37l4 1 3 6h2v8l-3 5h-3l-3-12z"/><path fill="#3a4e90" d="M368 29l10 1v12h-5v-2l-4-1-1-1z"/><path fill="#2138ad" d="M455 324h25v4l-8 1h-14l-3-3z"/><path fill="#6e7587" d="M133 270h7l-2 7-4 1v3h2v2h-11l1-4h3l1-6h2z"/><path fill="#3774ee" d="M404 264h11l5 1v2h-2v2l5 1v1h-19z"/><path fill="#76675b" d="M635 323h13l4 3h-8l1 3h-17v-4z"/><path fill="#e2d134" d="M646 274l2 1-3 3v3l3 1-2 2 6-2 6-1-4 3-4 3-17 3v-2l7-6 3-6z"/><path fill="#2339ab" d="M440 319h8v3h3v4h-14l-5-3v-3z"/><path fill="#2a42c7" d="M216 326h14v6h-18l-1-4h5z"/><path fill="#533e78" d="M371 282l1 3 4 2 1 5h2v6h-7v-6h-5l-1-4 5-1z"/><path fill="#4d4653" d="M652 337h10l5 1-3 2-6 1v3h-20v-3h16z"/><path fill="#7d6968" d="M528 210h7v4l-10 2-2 2h-19v-1l12-2 6-4z"/><path fill="#3663dc" d="M483 270h16v3h-3v2h-16l-7-2 4-2z"/><path fill="#5f81ca" d="M339 259l9 2 3 3 1 6h-3v3l-5-1-2-1-1-10z"/><path fill="#2f47a4" d="M356 215l4 1v5l-3 2-2 6-2 10h-1v-6h-6v-3h3v-4h2l1-3h2z"/><path fill="#233088" d="M209 99l7 2v6l-2 2h-9l1-2 3-1-8-1 1-4z"/><path fill="#3f3d64" d="M608 295h17l9 2v2h-29l1-3z"/><path fill="#393d6e" d="M74 250l6 1-2 10h-9v-3h-4v-2l8-4z"/><path fill="#948c65" d="M457 79l8 1 1 2-5 1v3l-5 1v6h-2l-1 3-2-12 4-4z"/><path fill="#474a79" d="M512 43l4 1 3 18 3 6-5-1v-2l-4-1-1-7h2l-1-12zm4 0z"/><path fill="#2a4ca8" d="M298 252h9v3h3v-3h13v4l-24 1z"/><path fill="#324290" d="M298 225h1v7h17l4 2-20 2-4 1-2-5 2-6z"/><path fill="#414451" d="M8 183h6v7H9l-1 4-6 1v-2H0v-3l5-1 2-5z"/><path fill="#273778" d="M165 8l3 1 2 4v3h9l4 9-2 3h-2l-1 3-1-2 1-11-8 1h-3v-3h-2z"/><path fill="#d9c44e" d="M216 156h9l1 1v7h-2v2l-3 2h-5l1-5 1-6z"/><path fill="#d1c24d" d="M464 86h4l1 6h-2l1 4-1 2h-6l-2-5v-5z"/><path fill="#3d4da6" d="M374 76l5 1 2 6-1 10-2 3-5-2-6-3v-1l8-1 1-2 1-9-3-1z"/><path fill="#9a8658" d="M528 43v3l1 6 5 1v2h5l2 7-3-1v-2l-10-2-1-2-3-1 1-10z"/><path fill="#a9924c" d="M540 15h3v2l-3 1-1 10v6h-3v7h-1v-5l-4 1v-5l2-1 1-8 4-1v-6z"/><path fill="#4f96eb" d="M396 245h12l3 3v4h-12v-3l-3-1z"/><path fill="#3553d6" d="M636 98h4v2h-2v2h-2l-1 4-7 2-1 2h-5v2h-4v-4l8-3 4-3h2v-2z"/><path fill="#aea164" d="M73 231h7l-1 3h-2l2 12-6-2-2-2v-9z"/><path fill="#291a25" d="M664 322h2v5l-4 4 6 2v2l-12-1 2-1v-2l-7-1-3-2 16-2z"/><path fill="#dbd14a" d="M660 210h1v29l-2 10h-2l-2 10-2 2 2-10 3-16z"/><path fill="#a7aa71" d="M455 232l7 3 2 3-1 8-3 2h-3l-1-12z"/><path fill="#302834" d="M628 329h19l3 3-2 2-10 3h-3v-4h2v-2l-9-1z"/><path fill="#544642" d="M653 322h11v4l-13 3-2 2-5-3v-2l6-1 3-1z"/><path fill="#78778f" d="M395 180h7v4l-6 3-3 2h-7l2-5z"/><path fill="#ac955e" d="M550 7l6 1 1 3-4 5-5 3-2 2-3-1 1-2 2 1v-7z"/><path fill="#976897" d="M330 327h13l1 4-6 3-7-1-1-1z"/><path fill="#204295" d="M338 243l5 1 2 4v5l1 2h-19v-2l15-1-4-7z"/><path fill="#c0b14d" d="M125 206h19v2l-14 3-3 2v-3l-8 1 3-2z"/><path fill="#6e83ac" d="M205 256l10 2 1 4 4 2-1 2h-8l-1-3-5-2z"/><path fill="#233782" d="M646 196h11v5h-7v-3h-4l-1 5h-8v-2h2l1-3z"/><path fill="#3d53a7" d="M344 92h7l1 1v8l-1 1h-7l-1-6z"/><path fill="#a38c53" d="M565 7h8l13 4v8l-4-1 1-3-4-1-1-4h-8l-2-1v4h-2z"/><path fill="#434988" d="M20 301h12v2h-2l2 5H18l-2-2 6-1-2-1z"/><path fill="#70789e" d="M164 293h14l5 2 6 1-2 2h-11l-12-2z"/><path fill="#b3a256" d="M458 86h6l-4 2 1 10h6l1-2 2 1-1 4h-4v-2l-10-1-1-5h2v-6z"/><path fill="#0f329d" d="M414 253h34v2l-34 1z"/><path fill="#1a34a4" d="M434 160l6 1v2l-6 1v2h-3l1 5-6-1-2-2 3-5z"/><path fill="#24368f" d="M624 193l8 1-2 4v-3l-6 2v-2h-2v8l-4 2h-5l1-2 3 1-1-2v-6h2v-2z"/><path fill="#e9c647" d="M100 136h8l1 4-2 2-1 4-5 1-1-1z"/><path fill="#396ee2" d="M192 263h13l4 2v3h-15z"/><path fill="#f0da0a" d="M642 163l9 2 8 4 1 4-5-1-6-2v-2h-6z"/><path fill="#6c6e7b" d="M300 64h6l3 2v9l-3 3h-8l-3-4v-7zm0 3l-4 1 1 7 1 1h8l2-2v-5h-3v-2z"/><path fill="#506de5" d="M273 215h5l-1 4h-4l-2 7h-2l-1 3h-2l1-10 3-3z"/><path fill="#866ad7" d="M379 307h2v7l-9 3h-7l1-3 5-2h5v-3h3z"/><path fill="#39478a" d="M508 201l12 1-2 4-3 2h-11v-2h3z"/><path fill="#695e49" d="M645 170l4 2 9 15 1 5v8h-1v-6h-5l1-10-4-4-3-6z"/><path fill="#6f7482" d="M307 86h6l3 2v8h-6l-2-5z"/><path fill="#222d7b" d="M645 207h15l-1 4h-19v-2z"/><path fill="#7b809f" d="M226 283h8v8l4 1v1l-11-1 1-3h4v-2h-8v-2h2z"/><path fill="#d1c856" d="M631 159l10 1 8 3 13 5 6 4-2 1-15-7-9-2-7-1z"/><path fill="#977b8d" d="M348 304h7l-1 3h-8l8 4 3 5-8-1-6-7 1-3z"/><path fill="#32302e" d="M648 267h2l-2 7-5 3-3 6-4 4-3-1 2-5 4-1 1-4-1-5 8 2v-5z"/><path fill="#385dd2" d="M242 262h6v7l-11 1v-5l5-1z"/><path fill="#3e579d" d="M298 64l2 1-2 2h-3l2 9 4 2v2h-3l-1 2-6-2v-4h2l-1-8z"/><path fill="#7f8390" d="M175 264h5l3 4v4h-10v-5h2z"/><path fill="#0c147b" d="M226 262h4v11l-3 3h-2l-1-7z"/><path fill="#ccc25e" d="M128 254l1 2h2v2l5 1 2 5-5 1-10-5 1-2 4 1v-2z"/><path fill="#586599" d="M298 99h14l4 6v7h-2l-2-9-1-3-10 1-1 11h-2l-1-12z"/><path fill="#8e8c76" d="M368 79h5l3 2v5l-9 2-1-8z"/><path fill="#677eb7" d="M304 277h9l1 5-4 2h-8z"/><path fill="#525a7d" d="M372 76l5 2v9l-2 3h-8l-2-4v-5l2 2 1 4 8-1v-5l-6-2 2-1z"/><path fill="#6a7089" d="M333 62l7 1v9l-7-1z"/><path fill="#4d75d3" d="M424 237h33v11l5-2-1 5h-5l-1-12-31-1z"/><path fill="#1f1820" d="M75 229h5l1 5-1 2v8h-2l-1-2v-8h2v-2h-6l-1 1-1 9h-2v-8l1-4z"/><path fill="#372f1a" d="M104 228h2v12l2 8h2v2h2v2l4 2 7 4-1 2-11-6-4-5v-2h-2l-1-6z"/><path fill="#aaa269" d="M213 152l4 1-1 4h2v6l-2 5h-2l-2-8z"/><path fill="#222c69" d="M43 205h10l3 1v3l-4 1H42z"/><path fill="#27237b" d="M356 308h9l3 1v2h5l-2 2-6 2v-2l-9-2z"/><path fill="#3e4271" d="M144 300l3 1v4l-3 1h-8l-5-2v-2h4v2h3v-3z"/><path fill="#404580" d="M67 325l9 1 1 3-19 2 1-3z"/><path fill="#2f3766" d="M122 316h8l6 1v2l-8 2h-16v-1l12-1z"/><path fill="#282019" d="M676 266h2l-2 7-3 3h-5v2l-3 2-4-1 13-10z"/><path fill="#373657" d="M111 253l11 6 11 5 4 2-9-1-7-4-9-3z"/><path fill="#646261" d="M649 158h3v2h2v3l4 3-6-1-10-3-1-2z"/><path fill="#43519c" d="M165 106l9 1-1 5h-10v-2h2z"/><path fill="#1b2b7c" d="M650 234h7v7l-11-1v-2h4z"/><path fill="#15328e" d="M626 158h2l1 2 4 2v1h-7v2l-5 2h-3v-2l6-5h2z"/><path fill="#66697a" d="M96 125h17l2 2-12 2v-3h-3v2h-2v2h-3z"/><path fill="#091659" d="M137 365l6 1 1 4h-16l2-2z"/><path fill="#626c79" d="M371 32h4l2 5v4l-6-1-1-7z"/><path fill="#59546f" d="M542 4h3v4l5-1-1 2-6 1V8l-3 1-1 2-7-1 4-3 5-2z"/><path fill="#1d3794" d="M596 184h6l-2 4h-3v2l-6 1 1-5z"/><path fill="#4752aa" d="M288 266h5l3 7v3l8 1v5h-2v-4h-6l-4-8-4-1z"/><path fill="#586296" d="M111 217v3l-4 7-4-1v-8l2 4h2v-3z"/><path fill="#7b6e61" d="M647 351l2 1-1 2h30v1h-34v-3z"/><path fill="#1b2a7f" d="M640 241h10v2h-2v3h-8z"/><path fill="#384696" d="M126 214l1 2-1 7 3 1v2l9 1v2h-7l-3-1-1-4h-4l2-9z"/><path fill="#e2b438" d="M561 32h2l1 4h2v6l-1 2-4-1z"/><path fill="#4c4b3b" d="M658 166l5 1 3 1v2l5 2 4 2v2h3l-1 3-15-10-4-2z"/><path fill="#9b9573" d="M598 61h4v5l-6 3-1 3-3-1 2-4h2v-2l2-1z"/><path fill="#c5af24" d="M74 232h2l1 10-3 1v-2h-2v-7z"/><path fill="#4d455b" d="M648 288l1 2h4l1 3-6 1h-12v-2h10z"/><path fill="#231e43" d="M553 0h11l-5 5h-2v2h-3V2z"/><path fill="#311b33" d="M345 306h9l1 5-6-1z"/><path fill="#343598" d="M286 268l2 1-1 1v8l2 2 3 8-4-2v-4h-2l-1-2v-11z"/><path fill="#5e70ac" d="M607 71h3v7h-6l1-4z"/><path fill="#71939e" d="M456 237h1v11l5-2-1 5h-5z"/><path fill="#7e7b67" d="M334 63l5 1v6l-4-1-1-1z"/><path fill="#48497d" d="M124 204l20 1v1h-19l-1 3-1-4z"/><path fill="#1f1e4d" d="M34 290h5l1 5-7-1-1-2h2z"/><path fill="#bdaf2d" d="M458 236l3 1v9h-3z"/><path fill="#7b6958" d="M121 144l1 2h3l-1 2-3-1-1 5h-4l1-4h2z"/><path fill="#5a6a8f" d="M141 208h2v2l-10 2-2 2-4-1 3-3z"/><path fill="#b0a574" d="M125 206h19v2l-6 1v-1h-13z"/><path fill="#505c73" d="M633 155h4v4l3 1-9-1z"/><path fill="#192c95" d="M203 92l7 1-1 3h-7z"/><path fill="#281b7d" d="M271 205l1 4-1 5h-2l-2 3v-7h2z"/><path fill="#7c7256" d="M453 96l12 3v2l2 1-3 1-1-3h-9z"/><path fill="#0f2975" d="M187 220l4 2 1 4h-2v2h-2z"/><path fill="#273ca0" d="M224 273l1 3 2 1h-3l-1 4-3-1 2-6z"/><path fill="#26283b" d="M652 202h7l2 2-1 4-2-4h-6z"/><path fill="#efd21a" d="M124 210h3v3h-3v2h-6v-2l6-1z"/><path fill="#243068" d="M188 362h4v2l-8 4 1-4z"/><path fill="#2a2930" d="M127 248l4 5 1 4h3l-1 2-3-1v-2h-2l-2-4z"/><path fill="#79808a" d="M522 202h6v3l-6 1z"/><path fill="#212e68" d="M36 183l3 1v11h-1l-2-7z"/><path fill="#b7a741" d="M216 157h2v6l-2 5h-1v-8z"/><path fill="#9a9065" d="M96 149h2v3l3 1 1 5-6-5z"/><path fill="#271a0a" d="M659 280h2l-1 3-8 4-2-1z"/><path fill="#dacf4c" d="M654 281l4 1-8 5-3-1z"/><path fill="#cdc139" d="M128 254l1 2h2l3 7h-2v-2h-4v-4z"/><path fill="#172592" d="M384 207h3v3l-6 1-3-2z"/><path fill="#ddd22a" d="M642 163l6 1-1 2h-2v2l-3-1z"/><path fill="#173e92" d="M356 252h6v3h-5z"/><path fill="#241c34" d="M458 232h5l1 5-6-4z"/><path fill="#4f431e" d="M648 267h2l-2 7-2-1z"/><path fill="#e5d438" d="M676 264h2v2h-2l-2 4-1-3z"/><path fill="#adab76" d="M134 259h2l2 5-5 1 2-1z"/><path fill="#ddd04a" d="M668 173l5 2 1 2-5-1z"/><path fill="#120638" d="M351 307h3l1 4h-3z"/><path fill="#413415" d="M635 283l3 1-2 3-3-1z"/><path fill="#4858b8" d="M355 217l1 3-2 3-2-1z"/><path fill="#6f7399" d="M81 330h3v3l-4-1z"/><path fill="#6b5c1d" d="M635 289l4 1-5 2-1-2z"/><path fill="#5578e6" d="M25 162h3l-1 3h-2z"/></svg>